<?xml version="1.0" standalone="no"?><!DOCTYPE svg PUBLIC "-//W3C//DTD SVG 1.1//EN" "http://www.w3.org/Graphics/SVG/1.1/DTD/svg11.dtd"><svg t="1651939086779" class="icon" viewBox="0 0 1024 1024" version="1.1" xmlns="http://www.w3.org/2000/svg" p-id="2018" xmlns:xlink="http://www.w3.org/1999/xlink" width="200" height="200"><defs><style type="text/css"></style></defs><path d="M768.148185 308.041855l-146.862466 211.404687 67.895549-0.082901z" opacity=".14" p-id="2019"></path><path d="M518.049667 26.362374a16.194622 16.194622 0 0 0-10.333553 15.11277l0.621754 479.181746a16.186332 16.186332 0 0 0 16.186332 16.165606h29.744717a16.194622 16.194622 0 0 0 11.44442-4.746056l212.598455-212.594309a16.186332 16.186332 0 0 0 0.518128-22.354133L535.86914 30.552997a16.182187 16.182187 0 0 0-17.819473-4.190623z" fill="#FFA6A6" p-id="2020"></path><path d="M505.614585 26.362374l190.041216 292.120805L751.149427 286.006889z" fill="#FFFFFF" opacity=".24" p-id="2021"></path><path d="M756.198071 295.8762l-242.339026 212.594309a16.190477 16.190477 0 0 0 10.673445 28.360278h164.715098a16.198767 16.198767 0 0 0 15.212251-10.636141l77.623928-212.594309a16.186332 16.186332 0 0 0-25.885696-17.724137z" fill="#E08080" p-id="2022"></path><path d="M301.053339 266.347025L34.465903 509.316095a16.173897 16.173897 0 0 0-4.190623 17.819472 16.173897 16.173897 0 0 0 15.108625 10.329409l479.181746-0.617609a16.178042 16.178042 0 0 0 16.157316-16.182187v-29.748862a16.194622 16.194622 0 0 0-4.746056-11.448565L323.390891 266.869298a16.165607 16.165607 0 0 0-22.337552-0.522273z" fill="#56C1E8" p-id="2023"></path><path d="M1003.498695 503.969009l-479.181746 0.6259a16.182187 16.182187 0 0 0-16.161462 16.182186v29.753007a16.207057 16.207057 0 0 0 4.737766 11.444421l212.6026 212.590164a16.186332 16.186332 0 0 0 22.349988 0.518129l266.579146-242.960781a16.186332 16.186332 0 0 0-10.926292-28.153026z" fill="#FFE76E" p-id="2024"></path><path d="M298.599483 269.165643a16.173897 16.173897 0 0 0 1.185478 19.817376l212.590164 242.339026a16.186332 16.186332 0 0 0 28.347842-10.67759V355.925211a16.165607 16.165607 0 0 0-10.631995-15.199815L317.500808 263.109758a16.169752 16.169752 0 0 0-18.901325 6.055885z" fill="#5FD4FF" p-id="2025"></path><path d="M34.465903 509.316095l288.626546-188.271289 205.207871 26.196573-229.700837-78.075736z" fill="#FFFFFF" opacity=".24" p-id="2026"></path><path d="M582.243707 570.811721l419.737908-63.004416-472.24297-3.320167z" fill="#FFFFFF" opacity=".59" p-id="2027"></path><path d="M518.634116 505.631165a16.190477 16.190477 0 0 0-10.478629 15.154221v164.715098a16.194622 16.194622 0 0 0 10.631995 15.21225l212.59431 77.615638a16.186332 16.186332 0 1 0 17.728282-25.873261l-212.598455-242.343171a16.202912 16.202912 0 0 0-17.877503-4.480775z" fill="#F0C33C" p-id="2028"></path><path d="M494.816789 504.553458a16.190477 16.190477 0 0 0-11.448566 4.737767l-212.594309 212.598454a16.194622 16.194622 0 0 0-0.518129 22.349988l242.964926 266.579146a16.194622 16.194622 0 0 0 17.823617 4.194768 16.207057 16.207057 0 0 0 10.329409-15.11277l-0.621755-479.181746a16.186332 16.186332 0 0 0-16.186331-16.165607h-29.748862z" fill="#8ED4AE" p-id="2029"></path><path d="M344.634157 515.185454l-23.929243 186.327271 197.904332 304.804588-257.961634-268.315912z" fill="#FFFFFF" opacity=".24" p-id="2030"></path><path d="M359.833972 504.553458a16.173897 16.173897 0 0 0-15.199815 10.631996L267.018519 727.779763a16.186332 16.186332 0 0 0 25.877406 17.728282l242.339026-212.594309a16.173897 16.173897 0 0 0 4.46834-17.877503 16.173897 16.173897 0 0 0-15.141786-10.482775H359.833972z" fill="#ABFFD2" p-id="2031"></path><path d="M737.85218 763.58451l-209.448234-182.339755-1.131593-74.8965zM328.808442 713.997547l148.425141-90.684909 41.375663 383.004675-0.364762-458.502204zM34.465903 513.461122l337.069482-63.547415-64.886259-113.996543 191.102342 172.781322zM540.735402 484.897738l158.257146-103.376983-0.949211 114.145765 71.601203-208.606794z" fill="#6E6E96" opacity=".15" p-id="2032"></path></svg>